<?xml version="1.0" standalone="no"?>
<!DOCTYPE svg PUBLIC "-//W3C//DTD SVG 1.1//EN" "http://www.w3.org/Graphics/SVG/1.1/DTD/svg11.dtd" >
<svg xmlns="http://www.w3.org/2000/svg">
<metadata></metadata>
<defs>
<font id="antennalight" horiz-adv-x="1269" >
<font-face units-per-em="2048" ascent="1638" descent="-410" />
<missing-glyph horiz-adv-x="481" />
<glyph unicode="&#xfb01;" horiz-adv-x="1247" d="M63 989v141h213v105q0 172 74 263t262 91h123v-137h-106q-113 0 -156 -56.5t-43 -160.5v-105h305v-141h-305v-989h-154v989h-213zM926 0v1130h155v-1130h-155zM926 1280v221h155v-221h-155z" />
<glyph unicode="&#xfb02;" horiz-adv-x="1357" d="M63 989v141h213v119q0 172 74 263.5t262 91.5h123v-138h-106q-113 0 -156 -56t-43 -161v-119h305v-141h-305v-989h-154v989h-213zM926 270v1319h155v-1302q0 -88 23.5 -119t105.5 -31h50v-135q-33 -4 -99 -4q-135 0 -185 61.5t-50 210.5z" />
<glyph horiz-adv-x="2048" />
<glyph horiz-adv-x="2048" />
<glyph unicode="&#xd;" horiz-adv-x="681" />
<glyph unicode=" "  horiz-adv-x="481" />
<glyph unicode="&#x09;" horiz-adv-x="481" />
<glyph unicode="&#xa0;" horiz-adv-x="481" />
<glyph unicode="!" horiz-adv-x="733" d="M264 0v225h205v-225h-205zM281 1518h172l-19 -1100h-135z" />
<glyph unicode="&#x22;" horiz-adv-x="980" d="M201 1518h159l-12 -586h-133zM621 1518h159l-12 -586h-135z" />
<glyph unicode="#" horiz-adv-x="1507" d="M135 455v141h273l61 322h-334v143h363l88 457h149l-90 -457h330l90 457h147l-86 -457h248v-143h-276l-62 -322h338v-141h-364l-88 -455h-150l88 455h-328l-88 -455h-151l88 455h-246zM547 590h348l66 336h-349z" />
<glyph unicode="$" horiz-adv-x="1359" d="M133 147l76 117q182 -121 414 -131v602q-80 16 -133.5 31.5t-114 45.5t-95 69t-58 100t-23.5 143q0 190 101 285.5t316 108.5v133h144v-133q229 -16 370 -111l-75 -121q-113 76 -301 90v-526q86 -18 143 -34.5t121.5 -49.5t102.5 -74t63.5 -106.5t25.5 -151.5 q0 -401 -450 -432v-195h-144v193q-283 10 -483 147zM350 1130q0 -109 65.5 -163t207.5 -88v499q-150 -10 -211.5 -70.5t-61.5 -177.5zM754 135q160 14 233.5 85t73.5 206q0 127 -71.5 184.5t-235.5 96.5v-572z" />
<glyph unicode="%" horiz-adv-x="2271" d="M90 1061q0 223 99.5 352t310.5 129q207 0 306 -129t99 -352t-99 -351t-306 -128q-211 0 -310.5 128t-99.5 351zM233 1061q1 -352 267 -352q264 0 264 352q0 350 -264 350q-266 0 -267 -350zM637 0l846 1520h147l-846 -1520h-147zM1366 459q0 223 98.5 352t307 129 t308 -129t99.5 -352t-99.5 -351t-308 -128t-307 128t-98.5 351zM1507 459q0 -353 264.5 -353t264.5 353q0 350 -264.5 350t-264.5 -350z" />
<glyph unicode="&#x26;" horiz-adv-x="1613" d="M96 403q0 156 86 263.5t236 193.5q-80 199 -80 363q0 162 85 240.5t238.5 78.5t227.5 -76.5t74 -242.5q0 -61 -21.5 -115.5t-50.5 -93.5t-82 -81t-92 -66.5t-107 -63.5q119 -223 287 -383q63 -59 131 -115q117 160 223 574l135 -33q-111 -432 -245 -619q147 -86 327 -86 h23v-141h-27q-121 0 -218 23.5t-208 93.5q-162 -137 -438 -137q-274 0 -389 100t-115 323zM248 406q0 -152 71.5 -223.5t280.5 -71.5q201 0 324 90q-57 43 -144 127q-180 174 -305 413q-227 -150 -227 -335zM487 1223q0 -137 70 -305q131 80 198.5 146t67.5 159 q0 94 -36.5 138t-124.5 44q-175 0 -175 -182z" />
<glyph unicode="'" horiz-adv-x="563" d="M201 1520h159l-12 -588h-133z" />
<glyph unicode="(" horiz-adv-x="976" d="M233 614q0 322 133.5 589t305.5 411l110 -84q-164 -150 -277.5 -380t-113.5 -535.5t117 -536t274 -371.5l-110 -84q-176 147 -307.5 403.5t-131.5 587.5z" />
<glyph unicode=")" horiz-adv-x="976" d="M195 -293q389 362 389 907q0 305 -117 542t-272 374l108 84q176 -147 307 -406.5t131 -593.5q0 -319 -132 -582.5t-306 -408.5z" />
<glyph unicode="*" horiz-adv-x="1177" d="M139 848l348 184l-348 189l64 112l338 -209l-15 396h125l-14 -396l338 209l63 -112l-348 -189l348 -184l-63 -113l-338 207l14 -393h-125l15 391l-338 -205z" />
<glyph unicode="+" horiz-adv-x="1425" d="M217 649v148h418v415h153v-415h418v-148h-418v-418h-153v418h-418z" />
<glyph unicode="," horiz-adv-x="489" d="M131 -160q68 37 90.5 68t22.5 92h-103v227h205v-172q0 -129 -33 -188.5t-137 -110.5z" />
<glyph unicode="-" horiz-adv-x="925" d="M106 557v145h711v-145h-711z" />
<glyph unicode="." horiz-adv-x="489" d="M141 0v227h205v-227h-205z" />
<glyph unicode="/" horiz-adv-x="1011" d="M0 0l850 1518h162l-850 -1518h-162z" />
<glyph unicode="0" horiz-adv-x="1492" d="M164 760q0 147 14.5 260t53 214t103 166.5t169 103.5t244.5 38q172 0 288.5 -55t179 -165t88 -244t25.5 -318q0 -182 -25.5 -316.5t-88 -244t-179 -166t-288.5 -56.5q-174 0 -292 56.5t-180.5 166t-87 242.5t-24.5 318zM324 760q0 -119 9 -207t35.5 -174t71.5 -139.5 t123 -86t184.5 -32.5t183.5 32.5t123 87t72.5 139.5t35.5 173t9 207t-9 208t-35.5 173t-72.5 137t-123 85t-183.5 32t-183.5 -32t-123 -85t-72.5 -138t-35.5 -172t-9 -208z" />
<glyph unicode="1" horiz-adv-x="763" d="M76 1370v148h442v-1518h-153v1370h-289z" />
<glyph unicode="2" horiz-adv-x="1206" d="M78 0v131l510 512q190 193 254.5 288t64.5 228q0 125 -74.5 182.5t-248.5 57.5q-244 0 -410 -90l-70 127q203 106 492 106q236 0 350.5 -88t114.5 -283q0 -162 -76 -286.5t-270 -319.5l-426 -428h796v-137h-1007z" />
<glyph unicode="3" horiz-adv-x="1251" d="M45 117l78 123q231 -125 467 -125q201 0 287 71.5t86 255.5q0 168 -84 242t-326 74h-209v139h205q209 0 290 60.5t81 205.5q0 131 -76 184.5t-256 53.5q-244 0 -420 -107l-84 119q211 129 514 129q244 0 358.5 -81t114.5 -273q0 -147 -52 -235.5t-142 -114.5 q125 -27 181 -126.5t56 -279.5q0 -252 -127 -354.5t-391 -102.5q-303 0 -551 142z" />
<glyph unicode="4" horiz-adv-x="1366" d="M109 383v127l679 1008h170l-677 -1000h585l31 502h115v-502h282v-135h-282v-383h-148v383h-755z" />
<glyph unicode="5" horiz-adv-x="1302" d="M117 117l80 125q238 -127 440 -127q195 0 303.5 79.5t108.5 288.5q0 207 -101.5 290t-288.5 83q-205 0 -358 -76l-131 39l39 699h887v-142h-748l-24 -450q135 72 368 71q244 0 378 -112.5t134 -397.5q0 -152 -41 -255t-120.5 -157.5t-175 -76t-226.5 -21.5 q-281 0 -524 140z" />
<glyph unicode="6" horiz-adv-x="1411" d="M156 614q0 250 38.5 413t136 276.5t263.5 164t422 50.5h63v-142h-67q-201 0 -336 -35.5t-209 -109.5t-105.5 -157t-46.5 -204q117 150 469 150q276 0 389 -130t113 -386q0 -258 -124 -392.5t-419 -134.5q-301 0 -444 148.5t-143 488.5zM313 547q0 -236 109.5 -335 t322.5 -99q217 0 302.5 98t85.5 288.5t-87.5 289t-300.5 98.5q-197 0 -314.5 -87t-117.5 -253z" />
<glyph unicode="7" horiz-adv-x="1093" d="M45 1376v142h1016v-125l-612 -1393h-162l606 1376h-848z" />
<glyph unicode="8" horiz-adv-x="1423" d="M139 424q0 162 64.5 269.5t189.5 140.5q-203 63 -203 333q0 182 119 278.5t403.5 96.5t402.5 -96t118 -279q0 -127 -51.5 -216t-151.5 -117q256 -70 256 -410q0 -451 -573.5 -451t-573.5 451zM295 434q0 -164 101.5 -244.5t316.5 -80.5q213 0 314 80.5t101 244.5 q0 328 -415 328q-215 0 -316.5 -81t-101.5 -247zM340 1151q0 -131 86 -194.5t287 -63.5q199 0 284.5 63.5t85.5 194.5t-86 194.5t-284 63.5q-201 0 -287 -63.5t-86 -194.5z" />
<glyph unicode="9" horiz-adv-x="1411" d="M131 1014q0 258 124 393t419 135q301 0 444.5 -148.5t143.5 -488.5q0 -250 -39 -412.5t-136.5 -277.5t-263.5 -165t-422 -50h-65v137h67q162 0 283 26.5t194.5 68.5t121 111t68 138.5t30.5 165.5q-117 -150 -467 -149q-276 0 -389 132t-113 384zM283 1014 q0 -188 88 -287.5t299 -99.5q197 0 314.5 87t117.5 253q0 236 -108.5 335t-319.5 99q-217 0 -304 -98.5t-87 -288.5z" />
<glyph unicode=":" horiz-adv-x="530" d="M162 0v223h205v-223h-205zM162 907v223h205v-223h-205z" />
<glyph unicode=";" horiz-adv-x="530" d="M152 -160q68 37 90 68t22 92h-102v223h205v-168q0 -129 -33 -188.5t-137 -110.5zM162 907v223h205v-223h-205z" />
<glyph unicode="&#x3c;" horiz-adv-x="1425" d="M213 649v119l917 459v-146l-759 -372l759 -373v-150z" />
<glyph unicode="=" horiz-adv-x="1425" d="M229 428v145h967v-145h-967zM229 870v144h967v-144h-967z" />
<glyph unicode="&#x3e;" horiz-adv-x="1425" d="M295 186v150l760 371l-760 372v148l917 -461v-119z" />
<glyph unicode="?" horiz-adv-x="1359" d="M174 1425q211 117 522 117q279 0 386.5 -86t107.5 -274q0 -143 -65.5 -223t-219.5 -166q-139 -78 -172 -145.5t-18 -244.5h-154q-20 201 25 296.5t200 183.5q152 86 199 137t47 149q0 117 -68.5 172.5t-277.5 55.5q-242 0 -444 -107zM535 0v209h204v-209h-204z" />
<glyph unicode="@" horiz-adv-x="2222" d="M186 598q0 469 233.5 707.5t690.5 238.5q461 0 695.5 -238.5t234.5 -707.5q0 -303 -71 -416.5t-271 -113.5q-154 0 -205 48t-57 124q-49 -86 -144.5 -125t-259.5 -39q-440 0 -440 532q0 530 446 531q162 0 251 -36t130 -120l33 147l100 -6v-780q0 -55 9.5 -90t49.5 -63.5 t113 -28.5q133 0 174 92t41 344q0 848 -829 848q-823 0 -823 -848q0 -838 837 -838q324 0 568 119l43 -86q-259 -131 -611 -131q-938 0 -938 936zM735 608q0 -407 324 -407q182 0 267 92t85 315q0 221 -84 308.5t-268 87.5q-170 0 -247 -100.5t-77 -295.5z" />
<glyph unicode="A" horiz-adv-x="1480" d="M51 0l608 1528h162l609 -1528h-164l-140 350h-778l-137 -350h-160zM403 498h666l-332 835z" />
<glyph unicode="B" horiz-adv-x="1439" d="M178 0v1518h660q248 0 365.5 -91.5t117.5 -277.5q0 -133 -54.5 -226.5t-154.5 -123.5q246 -61 246 -379q0 -225 -132 -322.5t-405 -97.5h-643zM336 145h502q186 0 272 69t86 220q0 145 -87 212t-275 67h-498v-568zM336 860h506q176 0 245.5 70.5t69.5 197.5 q0 121 -74.5 181.5t-240.5 60.5h-506v-510z" />
<glyph unicode="C" horiz-adv-x="1476" d="M90 760q0 391 194.5 586.5t561.5 195.5q330 0 530 -190l-114 -115q-168 152 -418 152q-592 0 -592 -631q0 -629 594 -629q156 0 252 41t176 115l112 -109q-202 -199 -548 -199q-748 0 -748 783z" />
<glyph unicode="D" horiz-adv-x="1540" d="M178 0v1518h496q434 0 606 -163t172 -595q0 -424 -184.5 -592t-620.5 -168h-469zM340 147h313q356 0 496.5 136.5t140.5 476.5q0 348 -128 477t-486 129h-336v-1219z" />
<glyph unicode="E" horiz-adv-x="1308" d="M178 0v1518h1004v-154h-842v-502h821v-151h-821v-564h850v-147h-1012z" />
<glyph unicode="F" horiz-adv-x="1228" d="M178 0v1518h977v-154h-815v-514h797v-152h-797v-698h-162z" />
<glyph unicode="G" horiz-adv-x="1591" d="M90 760q0 782 754 782q356 0 553 -188l-115 -117q-174 152 -438 152q-299 0 -446.5 -155t-147.5 -476q0 -328 138 -482.5t454 -154.5q152 0 250 30.5t152 99t74.5 158t20.5 222.5v49h-512v149h672v-172q0 -133 -15.5 -230t-58.5 -186t-115.5 -143.5t-191 -87.5 t-282.5 -33q-395 0 -570.5 192.5t-175.5 590.5z" />
<glyph unicode="H" horiz-adv-x="1591" d="M178 0v1518h162v-648h911v648h160v-1518h-160v713h-911v-713h-162z" />
<glyph unicode="I" horiz-adv-x="546" d="M195 0v1518h157v-1518h-157z" />
<glyph unicode="J" horiz-adv-x="819" d="M61 0v147h138q160 0 226.5 68t66.5 219v1084h157v-1090q0 -229 -106.5 -329.5t-327.5 -100.5q-96 0 -154 2z" />
<glyph unicode="K" horiz-adv-x="1441" d="M178 0v1518h158v-838l768 838h186l-545 -596l619 -922h-182l-543 805l-303 -332v-473h-158z" />
<glyph unicode="L" horiz-adv-x="1202" d="M178 0v1518h162v-1371h807v-147h-969z" />
<glyph unicode="M" horiz-adv-x="1871" d="M178 0v1518h209l549 -1295l553 1295h205v-1518h-158v1249l-535 -1249h-135l-534 1249v-1249h-154z" />
<glyph unicode="N" horiz-adv-x="1595" d="M178 0v1518h176l908 -1252v1252h155v-1518h-147l-936 1288v-1288h-156z" />
<glyph unicode="O" horiz-adv-x="1708" d="M90 760q0 782 762 782q766 0 766 -782q0 -785 -766 -785q-762 0 -762 785zM252 758q0 -633 600 -633q604 0 604 633q0 631 -604 631q-600 0 -600 -631z" />
<glyph unicode="P" horiz-adv-x="1445" d="M178 0v1518h666q264 0 388 -110t124 -343q0 -240 -125 -360.5t-389 -120.5h-506v-584h-158zM336 733h510q176 0 263 76t87 250q0 172 -86 240.5t-270 68.5h-504v-635z" />
<glyph unicode="Q" horiz-adv-x="1708" d="M90 760q0 401 189.5 591.5t572.5 190.5t574.5 -190.5t191.5 -591.5q0 -393 -182.5 -579.5t-550.5 -194.5q-2 -24 -2 -45q0 -92 36 -128q44 -44 185 -44h158v-140q-6 0 -72 -1t-86 -1q-227 0 -308 80q-71 70 -71 234q0 25 2 51q-319 27 -478 213t-159 555zM252 758 q0 -317 143.5 -475t456.5 -158q315 0 459.5 158.5t144.5 474t-144.5 473.5t-459.5 158q-313 0 -456.5 -158t-143.5 -473z" />
<glyph unicode="R" horiz-adv-x="1470" d="M178 0v1518h656q264 0 388 -109t124 -336q0 -397 -390 -448l367 -625h-172l-363 618h-452v-618h-158zM336 766h500q172 0 260 66.5t88 234.5t-87 234.5t-268 66.5h-493v-602z" />
<glyph unicode="S" horiz-adv-x="1439" d="M84 154l82 122q242 -153 539 -153h4q236 0 344 70.5t108 226.5q0 39 -7 71.5t-26.5 58t-36 44t-55.5 36t-63.5 27t-79.5 21.5t-85 18t-99 19q-117 20 -185.5 36.5t-147.5 47t-120 71.5t-68.5 107.5t-27.5 157.5q0 215 136 311t413 96q330 0 528 -135l-86 -131 q-180 119 -442 119q-205 0 -297.5 -60.5t-92.5 -195.5q0 -57 20.5 -98.5t50.5 -68t91.5 -49t115.5 -33.5t151 -30q78 -14 120.5 -22.5t106 -23.5t100.5 -31.5t82 -40t69.5 -52t48 -66.5t34 -88.5t10.5 -109.5q0 -227 -148.5 -336.5t-457.5 -109.5q-365 0 -629 174z" />
<glyph unicode="T" horiz-adv-x="1409" d="M55 1364v154h1301v-154h-570v-1364h-161v1364h-570z" />
<glyph unicode="U" horiz-adv-x="1593" d="M168 547v971h162v-953q0 -215 98 -327.5t367 -112.5q272 0 373.5 111.5t101.5 328.5v953h155v-971q0 -125 -24.5 -218t-88 -178t-194 -130.5t-323.5 -45.5q-156 0 -271.5 32t-182.5 82t-106.5 128t-53 155t-13.5 175z" />
<glyph unicode="V" horiz-adv-x="1480" d="M55 1518h166l522 -1325l519 1325h165l-606 -1528h-162z" />
<glyph unicode="W" horiz-adv-x="2217" d="M72 1518h166l399 -1256l407 1256h140l405 -1256l402 1256h155l-487 -1528h-139l-410 1263l-408 -1263h-141z" />
<glyph unicode="X" horiz-adv-x="1452" d="M82 0l555 793l-506 725h176l424 -607l416 607h178l-510 -725l557 -793h-180l-473 674l-461 -674h-176z" />
<glyph unicode="Y" horiz-adv-x="1433" d="M27 1518h176l516 -783l520 783h166l-608 -926v-592h-160v590z" />
<glyph unicode="Z" horiz-adv-x="1361" d="M92 0v129l950 1235h-915v154h1114v-140l-946 -1231h969v-147h-1172z" />
<glyph unicode="[" horiz-adv-x="946" d="M252 -338v1927h487v-141h-329v-1649h335v-137h-493z" />
<glyph unicode="\" horiz-adv-x="1011" d="M0 1518h162l850 -1518h-162z" />
<glyph unicode="]" horiz-adv-x="946" d="M201 1448v141h491v-1927h-487v137h332v1649h-336z" />
<glyph unicode="^" horiz-adv-x="1208" d="M205 1231l311 319h174l311 -319h-155l-246 219l-242 -219h-153z" />
<glyph unicode="_" horiz-adv-x="927" d="M-76 -121h1080v-127h-1080v127z" />
<glyph unicode="`" horiz-adv-x="1208" d="M262 1569h191l309 -320h-148z" />
<glyph unicode="a" d="M90 315q0 240 161 329t593 89h67q-2 78 -13 126t-43 85t-92.5 52.5t-156.5 15.5q-188 0 -338 -99l-82 121q68 47 185.5 85t246.5 38q143 0 230.5 -24.5t134.5 -84t62.5 -138.5t15.5 -210v-426q0 -92 18.5 -114.5t98.5 -22.5v-135q-10 -4 -62 -4q-94 0 -132 31.5 t-52 109.5q-53 -82 -157 -120.5t-288 -38.5q-221 0 -309 88t-88 247zM240 326q0 -106 60 -159.5t210 -53.5q213 0 307 95t94 302v82h-59q-252 0 -380 -22.5t-180 -78t-52 -165.5z" />
<glyph unicode="b" horiz-adv-x="1325" d="M156 4v1585h155v-588q47 82 149.5 119t280.5 37q266 0 375 -151.5t109 -438t-111 -437t-381 -150.5q-184 0 -283.5 35.5t-154.5 117.5l-29 -139zM311 561q0 -248 90.5 -345t309.5 -97q199 0 277.5 110.5t78.5 331.5q0 225 -78 337t-278 112q-217 0 -308.5 -100.5 t-91.5 -348.5z" />
<glyph unicode="c" horiz-adv-x="1153" d="M100 567q0 291 121 440.5t424 149.5q258 0 408 -162l-113 -106q-119 119 -295 119q-213 0 -301 -111t-88 -334t87 -333.5t302 -110.5q172 0 303 119l105 -99q-90 -82 -183.5 -120.5t-228.5 -38.5q-299 0 -420 149.5t-121 437.5z" />
<glyph unicode="d" horiz-adv-x="1325" d="M100 571q0 285 111 434.5t379 149.5q182 0 280.5 -36t143.5 -115v585h155v-1583l-120 -10l-19 145q-55 -86 -157.5 -123.5t-286.5 -37.5q-268 0 -377 151.5t-109 439.5zM258 571q0 -225 77.5 -336.5t278.5 -111.5q217 0 308.5 100.5t91.5 347.5q0 246 -89 342.5 t-311 96.5q-201 0 -278.5 -108.5t-77.5 -330.5z" />
<glyph unicode="e" horiz-adv-x="1214" d="M100 567q0 133 23.5 232.5t80 184.5t165 129t268.5 44q94 0 169 -19.5t123 -49t83 -82t52 -100.5t26 -122q10 -72 12 -128q1 -28 1 -63.5t-1 -78.5h-852q6 -199 89 -300t304 -101q127 0 206 28.5t159 85.5l84 -108q-185 -142 -449 -142q-164 0 -275.5 44.5t-168 129.5 t-78 183t-21.5 233zM252 655h702q-4 76 -9 117t-23.5 95.5t-50 82t-92 48t-146.5 20.5q-201 0 -284 -92t-97 -271z" />
<glyph unicode="f" horiz-adv-x="786" d="M63 989v141h213v105q0 172 74 263t262 91h123v-137h-106q-113 0 -156 -56.5t-43 -160.5v-105h305v-141h-305v-989h-154v989h-213z" />
<glyph unicode="g" horiz-adv-x="1222" d="M61 -84q0 236 224 281q-72 31 -72 133q0 84 53 151q-139 88 -139 297q0 193 111.5 286t351.5 93q57 0 110 -6l394 47v-129h-189q152 -82 152 -291q0 -188 -112.5 -276t-354.5 -88q-111 0 -197 18q-35 -41 -35 -84q0 -53 48.5 -69.5t189.5 -16.5q311 0 428 -59.5 t117 -229.5q0 -178 -127 -259t-430 -81q-285 0 -404 59.5t-119 223.5zM217 -61q0 -100 86 -138.5t285 -38.5q229 0 312 48.5t83 152.5q0 100 -83 132t-312 32q-117 0 -195 -14.5t-113.5 -42t-49 -58t-13.5 -73.5zM279 778q0 -121 72.5 -175t238.5 -54q168 0 240.5 54 t72.5 175q0 233 -313 234q-166 0 -238.5 -55.5t-72.5 -178.5z" />
<glyph unicode="h" d="M156 0v1589h155v-571q80 139 402 139q133 0 217 -31.5t124 -99.5t53 -142.5t13 -193.5v-690h-155v664q0 88 -8.5 139t-36 103t-90 75t-162.5 23q-209 0 -283 -94.5t-74 -274.5v-635h-155z" />
<glyph unicode="i" horiz-adv-x="487" d="M166 0v1130h153v-1130h-153zM166 1280v221h156v-221h-156z" />
<glyph unicode="j" horiz-adv-x="487" d="M4 -213h12q94 2 122 37t28 139v1167h153v-1167q0 -176 -57 -240.5t-231 -64.5h-27v129zM166 1280v221h156v-221h-156z" />
<glyph unicode="k" horiz-adv-x="1110" d="M156 0v1589h153v-1081l545 622h172l-410 -473l453 -657h-172l-383 545l-205 -232v-313h-153z" />
<glyph unicode="l" horiz-adv-x="598" d="M166 270v1319h153v-1302q0 -88 24 -119t108 -31h49v-135q-33 -4 -99 -4q-135 0 -185 61.5t-50 210.5z" />
<glyph unicode="m" horiz-adv-x="2033" d="M156 0v1122l123 8l14 -118q80 145 407 145q174 0 250 -39t101 -114q89 153 434 153h4q106 0 181 -23.5t117 -59.5t64.5 -100.5t28.5 -126t6 -157.5v-690h-155v664q0 92 -6.5 140t-32 101t-87 76t-161.5 23q-109 0 -180.5 -27t-106.5 -80t-47 -113.5t-12 -148.5v-635h-154 v664q0 92 -6 140t-31.5 101t-87 76t-162.5 23q-109 0 -180 -27t-106 -80t-47.5 -113.5t-12.5 -148.5v-635h-155z" />
<glyph unicode="n" d="M156 0v1122l123 8l14 -118q92 145 420 145q133 0 217 -31.5t124 -99.5t53 -142.5t13 -193.5v-690h-155v664q0 88 -8.5 139t-36 103t-90 75t-162.5 23q-209 0 -283 -94.5t-74 -274.5v-635h-155z" />
<glyph unicode="o" horiz-adv-x="1292" d="M100 567q0 299 129 444.5t416 145.5t417 -145.5t130 -444.5t-130 -444.5t-417 -145.5t-416 145.5t-129 444.5zM256 563q0 -223 91 -333.5t298 -110.5t298 110.5t91 333.5q0 225 -91 336t-298 111t-298 -111t-91 -336z" />
<glyph unicode="p" horiz-adv-x="1325" d="M156 -338v1460l123 8l14 -135q47 84 152.5 123t295.5 39q268 0 376 -150.5t108 -439.5q0 -285 -109.5 -435t-380.5 -150q-182 0 -280.5 35.5t-143.5 115.5v-471h-155zM311 563q0 -248 90.5 -344t309.5 -96q199 0 277.5 109.5t78.5 330.5q0 223 -78 335t-278 112 q-217 0 -308.5 -99.5t-91.5 -347.5z" />
<glyph unicode="q" horiz-adv-x="1325" d="M100 569.5q0 286.5 111 437t379 150.5q186 0 286.5 -35t153.5 -116l29 143l110 -10v-1477h-155v469q-59 -82 -155.5 -116.5t-272.5 -34.5q-268 0 -377 151.5t-109 438zM258 569q0 -223 78.5 -334.5t277.5 -111.5q217 0 308.5 99.5t91.5 347t-89 344t-311 96.5 q-201 0 -278.5 -109.5t-77.5 -331.5z" />
<glyph unicode="r" horiz-adv-x="735" d="M156 0v1122l123 8l16 -151q35 70 138.5 117t252.5 49v-156q-375 0 -375 -379v-610h-155z" />
<glyph unicode="s" horiz-adv-x="1069" d="M61 106l82 121q172 -112 394 -112h4q162 0 230.5 42t68.5 156q0 90 -60.5 125t-238.5 70q-92 18 -146.5 31.5t-115 39t-92 59.5t-52 86t-20.5 124q0 152 100 230.5t326 78.5q246 0 413 -98l-73 -127q-150 82 -338 82q-152 0 -213.5 -42t-61.5 -124q0 -88 59.5 -126 t221.5 -69q86 -16 130 -27.5t104.5 -29.5t90 -39.5t60.5 -54.5t43 -78t12 -105q0 -188 -107.5 -263.5t-349.5 -75.5q-276 0 -471 126z" />
<glyph unicode="t" horiz-adv-x="831" d="M63 989v141h207l27 340l123 23v-363h311v-141h-311v-680q0 -90 31.5 -131t140.5 -41h139v-137q-16 -2 -164 -2q-180 0 -240.5 68.5t-60.5 224.5v698h-203z" />
<glyph unicode="u" horiz-adv-x="1257" d="M150 465v665h153v-669q0 -53 1 -79t7 -69t18.5 -65.5t36 -51t58.5 -42t87 -23.5t121.5 -10t122 10t86 23.5t57.5 43t35 51t16 67.5t6 71t1 82v661h152v-659q0 -104 -7 -171t-35 -134.5t-78 -103t-138 -59t-217 -23.5q-160 0 -259.5 30.5t-147.5 101t-62 147.5t-14 206z " />
<glyph unicode="v" horiz-adv-x="1112" d="M23 1130h163l371 -956l373 956h160l-451 -1140h-166z" />
<glyph unicode="w" horiz-adv-x="1794" d="M31 1130h162l325 -915l305 915h154l303 -913l326 913h157l-407 -1140h-154l-305 907l-305 -907h-154z" />
<glyph unicode="x" horiz-adv-x="1107" d="M41 0l426 590l-389 540h170l311 -430l305 430h168l-393 -542l428 -588h-174l-346 479l-338 -479h-168z" />
<glyph unicode="y" horiz-adv-x="1085" d="M23 1130h163l361 -940l356 940h160l-488 -1243q-47 -125 -117.5 -177t-199.5 -52q-78 0 -98 2v127h88q78 0 115.5 25.5t60.5 91.5l41 104z" />
<glyph unicode="z" horiz-adv-x="1028" d="M68 0v117l675 872h-641v141h840v-118l-676 -879h699v-133h-897z" />
<glyph unicode="{" horiz-adv-x="1021" d="M168 557v135q145 0 203.5 20.5t58.5 92.5q0 51 -56.5 250.5t-56.5 267.5q0 137 79 201.5t268 64.5h157v-141h-129q-127 0 -172 -37t-45 -125q0 -47 54.5 -244.5t54.5 -261.5q0 -121 -115 -153q115 -37 115 -156q0 -63 -54.5 -262t-54.5 -246q0 -90 45 -127t172 -37h129 v-137h-157q-188 0 -267.5 64.5t-79.5 201.5q0 68 56.5 268.5t56.5 252.5q0 66 -56.5 87t-205.5 21z" />
<glyph unicode="|" horiz-adv-x="663" d="M252 -338v1927h158v-1927h-158z" />
<glyph unicode="}" horiz-adv-x="1021" d="M201 -201h131q127 0 171 37t44 127q0 47 -54.5 246t-54.5 262q0 119 115 156q-115 35 -115 153q0 63 54.5 261t54.5 245q0 88 -45 125t-170 37h-131v141h157q188 0 268.5 -64.5t80.5 -201.5q0 -68 -57.5 -267.5t-57.5 -250.5q0 -68 57.5 -89.5t204.5 -21.5v-135 q-145 0 -203.5 -20.5t-58.5 -89.5q0 -51 57.5 -252t57.5 -269q0 -137 -80 -201.5t-269 -64.5h-157v137z" />
<glyph unicode="~" horiz-adv-x="1208" d="M211 944q123 152 250 152q74 0 155.5 -49.5t128.5 -49.5q63 0 160 111l94 -76q-135 -166 -251 -166q-63 0 -150.5 50.5t-134.5 50.5q-80 -1 -154 -99z" />
<glyph unicode="&#xa1;" horiz-adv-x="733" d="M264 1292v226h207v-226h-207zM281 0l18 1100h137l17 -1100h-172z" />
<glyph unicode="&#xa2;" horiz-adv-x="1142" d="M102 567.5q0 268.5 103.5 415.5t359.5 166v129h148v-129q203 -18 336 -154l-111 -104q-100 100 -236 115v-889q127 16 246 119l101 -97q-147 -135 -336 -151v-181h-148v181q-256 18 -359.5 164.5t-103.5 415zM254 563q0 -205 72.5 -315.5t246.5 -128.5v887 q-174 -18 -246.5 -129t-72.5 -314z" />
<glyph unicode="&#xa3;" horiz-adv-x="1251" d="M72 721v131h198q-47 188 -47 299q0 393 443 393q215 0 399 -78l-61 -135q-139 66 -340 66q-158 0 -222.5 -67.5t-64.5 -196.5q0 -88 45 -281h471v-131h-438q57 -250 57 -346q0 -106 -18 -170q172 -82 350 -82q113 0 147.5 45t34.5 162v49h139v-53q0 -186 -68.5 -264 t-250.5 -78q-221 0 -420 104q-98 -88 -338 -88v135q127 0 188.5 26.5t77 72t15.5 139.5q0 98 -64 348h-233z" />
<glyph unicode="&#xa4;" horiz-adv-x="1357" d="M80 545v137h225v82q0 59 2 90h-227v137h237q33 274 160 412.5t381 138.5q215 0 365 -78l-72 -133q-121 66 -291 66q-186 0 -277 -102.5t-118 -303.5h541v-137h-551v-172h551v-137h-541q23 -213 114 -319.5t279 -106.5q178 0 295 71l78 -122q-147 -92 -379 -93 q-258 0 -383 142.5t-154 427.5h-235z" />
<glyph unicode="&#xa5;" horiz-adv-x="1280" d="M33 1518h164l444 -730l442 730h164l-530 -863v-37h430v-137h-430v-172h430v-137h-430v-172h-154v172h-428v137h428v172h-428v137h428v35z" />
<glyph unicode="&#xa6;" horiz-adv-x="663" d="M252 -338v803h158v-803h-158zM252 786v803h158v-803h-158z" />
<glyph unicode="&#xa7;" horiz-adv-x="1114" d="M111 762q0 264 348 295v123q0 66 6 112.5t25.5 96t55.5 79t98.5 48t150.5 18.5q111 0 125 -2v-135h-109q-125 0 -162 -53.5t-37 -161.5v-123q391 -16 392 -297q0 -264 -359 -293v-133q0 -84 -11 -139.5t-44 -108.5t-103.5 -79.5t-179.5 -26.5q-16 0 -66.5 1t-56.5 1v131 h109q123 0 159.5 53t36.5 164v135q-379 18 -378 295zM242 760q0 -96 76.5 -139t236.5 -43q162 0 239.5 43t77.5 139q0 94 -77.5 136t-239.5 42q-160 0 -236.5 -42t-76.5 -136z" />
<glyph unicode="&#xa8;" horiz-adv-x="1208" d="M317 1253v209h144v-209h-144zM750 1253v209h141v-209h-141z" />
<glyph unicode="&#xa9;" horiz-adv-x="1703" d="M90 759.5q0 358.5 193.5 571.5t564.5 213t566.5 -213t195.5 -571.5t-195.5 -571.5t-566.5 -213t-564.5 213t-193.5 571.5zM168 759.5q0 -327.5 170 -518t510 -190.5q342 0 514 191.5t172 517t-172 517t-514 191.5q-340 0 -510 -190.5t-170 -518zM360 768q0 260 134.5 392 t373.5 132q219 0 357 -127l-78 -80q-113 100 -281 101q-186 0 -289.5 -106.5t-103.5 -311.5q0 -207 101.5 -313.5t293.5 -106.5q178 0 289 103l74 -76q-140 -135 -367 -135q-246 0 -375 134t-129 394z" />
<glyph unicode="&#xaa;" horiz-adv-x="1206" d="M133 862q0 188 142.5 261t472.5 73h47q-4 127 -49.5 175t-188.5 48q-150 0 -268 -78l-72 103q55 37 150.5 66.5t199.5 29.5q115 0 185.5 -19.5t108.5 -67.5t50.5 -111.5t12.5 -170.5v-340q0 -76 15 -94t81 -18v-119q-4 0 -18.5 -1t-28.5 -1q-92 0 -126 28.5t-40 125.5 q-43 -88 -125 -128t-229 -40q-319 0 -320 278zM219 307v121h709v-121h-709zM260 870q0 -172 219 -172q160 0 238 78t78 244v70h-39q-283 0 -389.5 -46.5t-106.5 -173.5z" />
<glyph unicode="&#xab;" horiz-adv-x="1386" d="M195 563l309 567h139l-299 -567l299 -563h-139zM692 563l309 567h142l-301 -567l301 -563h-142z" />
<glyph unicode="&#xac;" horiz-adv-x="1703" d="M74 760q0 291 184 512q6 -4 14 -12q-178 -217 -178 -500t180 -500l-16 -14q-184 221 -184 514zM227.5 759.5q-0.5 231.5 145.5 409.5q2 -2 7 -6t9 -8q-141 -170 -141 -395q0 -227 141 -398l-14 -14q-147 180 -147.5 411.5zM336 164l14 16q215 -195 502 -194 q285 0 500 192l4 -2l8 -8l2 -4q-219 -199 -514 -199t-516 199zM338 1356q219 199 514 198.5t516 -198.5l-14 -17q-215 195 -502 195q-285 0 -500 -195zM350 759.5q0 184.5 115 327.5l7 -7t9 -7q-111 -137 -110 -313q0 -180 110 -314l-14 -14q-117 143 -117 327.5zM440 281 l15 14q172 -152 397 -152q227 0 395 152q2 -2 7.5 -8t7.5 -8q-177 -156 -410 -156q-238 0 -412 158zM440 1239q178 158 411.5 158t412.5 -158l-15 -16q-166 154 -397 153q-225 0 -397 -151zM449 760q0 147 92 262q4 -2 8 -7t8 -7q-88 -109 -88 -248t88 -248q-4 -2 -8 -7 t-8 -7q-92 115 -92 262zM522 373l15 16q133 -121 315 -121t313 121q2 -4 7.5 -8t7.5 -8q-138 -125 -328 -125q-188 0 -330 125zM524 1147q141 125 328 125q188 0 330 -125q-5 -7 -15 -17q-133 121 -315 121q-178 0 -313 -118zM526 760q0 119 74 209l14 -15 q-68 -88 -67.5 -194.5t67.5 -194.5q-10 -10 -16 -14q-72 92 -72 209zM588 449l14 14q106 -94 249.5 -94t248.5 94q2 -4 7 -9t7 -8q-110 -98 -262 -98q-147 0 -264 101zM590 760q0 96 57 166q2 -2 5 -4t5 -5.5t5 -5.5q-51 -68 -51.5 -151.5t53.5 -153.5q-2 -2 -7.5 -7 t-9.5 -7q-57 74 -57 168zM590 1073q111 98 262.5 98t261.5 -100l-4 -2l-4 -8l-4 -4q-106 94 -250 94t-248 -94zM641 506l14 16q88 -74 197 -73.5t197 73.5q4 -4 12 -16q-92 -78 -209 -78t-211 78zM641 760q0 74 43 133q6 -4 16 -14q-39 -51 -38 -119q0 -66 38 -117l-16 -16 q-43 59 -43 133zM641 1014q90 78 211 78q119 0 209 -80l-12 -15q-84 74 -197 74q-109 0 -197 -74zM682 553l14 16q72 -57 156 -57q86 0 154 57l14 -14q-74 -63 -168 -63q-98 0 -170 61zM682 759.5q0 59.5 33 104.5q2 -2 8 -7t8 -7q-29 -41 -29 -90t29 -90q-6 -5 -16 -15 q-33 45 -33 104.5zM684 965q74 63 168 63q96 0 168 -61l-14 -17q-68 57 -154 57t-154 -57zM717 592l14 16q51 -45 121 -45q68 0 119 45q2 -2 7 -8t7 -8q-59 -49 -133 -49q-76 0 -135 49zM717 928q59 49 135 49t135 -49l-16 -17q-51 45 -119 45t-119 -45zM720.5 760 q0.5 43 24.5 78l15 -15q-18 -33 -18.5 -63.5t18.5 -63.5l-15 -14q-25 35 -24.5 78zM743 623l15 16q45 -35 94 -35q51 0 92 35l14 -16q-45 -39 -106 -39q-59 0 -109 39zM745 897q45 39 106.5 39t106.5 -39l-14 -16q-39 35 -92 35t-92 -35zM760 760q0 26 14 51l12 -10 q-10 -20 -10 -41t10 -41q-4 -4 -12 -10q-14 25 -14 51zM770 653l14 15q35 -25 68 -25q35 0 66 25l14 -15q-35 -28 -80 -28q-43 0 -82 28zM772 866q35 29 80 29q43 0 78 -29q-8 -8 -12 -14q-29 25 -66 25q-35 0 -66 -25zM797 682l12 12q23 -14 43 -14q27 0 43 14q4 -4 10 -12 q-20 -18 -53 -18q-31 0 -55 18zM799 838q20 18 53 18t53 -18l-10 -13q-20 14 -43 15q-27 -1 -43 -15zM918 719q10 20 10 40.5t-10 41.5l12 10q14 -25 14 -51t-14 -51zM942 696q20 31 20.5 64t-20.5 63l16 15q25 -33 25 -78q0 -43 -25 -78q-10 10 -16 14zM973 668 q29 41 28.5 92t-28.5 90l14 14q35 -45 35 -104.5t-35 -106.5q-6 8 -14 15zM1004 641q39 51 38.5 118.5t-38.5 119.5l14 14q45 -57 45 -133q0 -70 -43 -133q-6 4 -16 14zM1040 913l17 15q57 -74 57 -168q0 -96 -57 -166l-15 14q51 68 51.5 152t-53.5 153zM1087 954l17 15 q74 -90 74 -209q0 -117 -72 -209l-7 7t-9 7q68 88 67 195q0 109 -70 194zM1147 512q88 109 88 248t-88 248l16 14q92 -115 92 -262t-92 -262q-10 10 -16 14zM1221 446q113 135 112 314q0 182 -112 313l16 14q117 -139 117 -327.5t-117 -327.5q-6 4 -16 14zM1313 1155l16 14 q147 -176 147 -409.5t-147 -409.5q-2 2 -7 6t-7 6q141 174 141 398q0 225 -143 395zM1430 260q180 217 180 499.5t-180 500.5l16 14q184 -221 184 -514q0 -291 -184 -514q-6 6 -16 14z" />
<glyph unicode="&#xad;" horiz-adv-x="925" d="M106 557v145h711v-145h-711z" />
<glyph unicode="&#xae;" horiz-adv-x="1703" d="M90 759.5q0 358.5 193.5 571.5t564.5 213t566.5 -213t195.5 -571.5t-195.5 -571.5t-566.5 -213t-564.5 213t-193.5 571.5zM168 759.5q0 -327.5 170 -518t510 -190.5q342 0 514 191.5t172 517t-172 517t-514 191.5q-340 0 -510 -190.5t-170 -518zM487 250v1010h435 q182 0 258.5 -71t76.5 -222q0 -133 -59 -205t-192 -88l249 -424h-114l-244 420h-303v-420h-107zM594 766h328q119 0 174 44t55 155q0 109 -54.5 152.5t-176.5 43.5h-326v-395z" />
<glyph unicode="&#xaf;" horiz-adv-x="1208" d="M236 1241v133h737v-133h-737z" />
<glyph unicode="&#xb0;" horiz-adv-x="1165" d="M137 1057q0 223 108.5 354t336 131t337 -131t109.5 -354q0 -225 -109.5 -355.5t-337 -130.5t-336 130t-108.5 356zM268 1055q1 -359 314 -359q315 0 315 359q0 356 -315 356q-313 0 -314 -356z" />
<glyph unicode="&#xb1;" horiz-adv-x="2009" d="M63 989v141h213v105q0 172 74 263t262 91h123v-137h-106q-113 0 -156 -56.5t-43 -160.5v-105h496v105q0 172 73.5 263t262.5 91h124v-137h-108q-111 0 -154 -56.5t-43 -160.5v-105h305v-141h-305v-989h-155v989h-496v-989h-154v989h-213zM1577 270v1319h154v-1302 q0 -88 23.5 -119t105.5 -31h49v-135q-29 -4 -99 -4q-133 0 -183 61.5t-50 210.5z" />
<glyph unicode="&#xb2;" horiz-adv-x="903" d="M125 1466q123 63 309 64q156 0 229.5 -56.5t73.5 -181.5q0 -102 -46 -175t-175 -199l-219 -222h451v-104h-617v94l293 291q121 119 154.5 171t33.5 134q0 72 -45 105.5t-145 33.5q-139 0 -242 -51z" />
<glyph unicode="&#xb3;" horiz-adv-x="944" d="M109 666l63 94q127 -74 274 -74q119 0 170.5 39t51.5 145q0 94 -50.5 135.5t-191.5 41.5h-131v100h127q123 0 170 30.5t47 112.5q0 72 -45 101.5t-150 29.5q-145 0 -254 -63l-61 94q131 80 330 80q162 0 234.5 -52.5t72.5 -166.5q0 -166 -131 -209q158 -37 158 -246 q0 -154 -80 -216t-256 -62q-195 0 -348 86z" />
<glyph unicode="&#xb4;" horiz-adv-x="1208" d="M446 1249l310 320h190l-352 -320h-148z" />
<glyph unicode="&#xb6;" horiz-adv-x="1267" d="M111 1065q0 238 115.5 345.5t396.5 107.5h452v-1518h-147v596h-254v-596h-148v600q-225 18 -320 131t-95 334zM266 1059q0 -180 81 -255t267 -75h314v645h-307q-195 0 -275 -68.5t-80 -246.5z" />
<glyph unicode="&#xb7;" horiz-adv-x="489" d="M141 561v232h205v-232h-205z" />
<glyph unicode="&#xb8;" horiz-adv-x="1208" d="M383 -401l47 86q88 -47 184 -47q94 0 128 28.5t34 79.5q0 57 -41 77.5t-151 14.5l-45 33l28 143h101l-19 -106q111 8 175.5 -27t64.5 -145q0 -197 -268 -197q-133 0 -238 60z" />
<glyph unicode="&#xb9;" horiz-adv-x="671" d="M127 1405v113h309v-926h-125v813h-184z" />
<glyph unicode="&#xba;" horiz-adv-x="1212" d="M166 1067q0 475 440.5 475t440.5 -475q0 -477 -440.5 -477t-440.5 477zM221 305v123h770v-123h-770zM299 1065q0 -354 307 -354t307 354q0 350 -307 350t-307 -350z" />
<glyph unicode="&#xbb;" horiz-adv-x="1386" d="M248 0l299 565l-299 565h137l309 -565l-309 -565h-137zM743 0l299 565l-299 565h142l309 -565l-309 -565h-142z" />
<glyph unicode="&#xbc;" horiz-adv-x="1785" d="M115 1401v117h313v-930h-129v813h-184zM362 0l846 1518h142l-846 -1518h-142zM969 217v98l413 615h140l-410 -606h311l23 251h100v-251h154v-107h-154v-217h-123v217h-454z" />
<glyph unicode="&#xbd;" horiz-adv-x="1925" d="M115 1401v117h313v-930h-129v813h-184zM362 0l846 1518h142l-846 -1518h-142zM1145 877q133 63 311 63q156 0 228.5 -56.5t72.5 -183.5q0 -104 -44 -173.5t-175 -200.5l-215 -217h432v-109h-604v98l293 289q125 125 157.5 174t32.5 127q0 72 -45 105.5t-145 33.5 q-135 0 -242 -53z" />
<glyph unicode="&#xbe;" horiz-adv-x="1978" d="M78 674l67 98q131 -74 271 -74q121 0 170 38t49 143q0 94 -49 133t-191 39h-129v108h125q125 0 172 30t47 109q0 72 -46 100.5t-150 28.5q-145 0 -252 -65l-64 98q131 82 330 82q162 0 234.5 -52t72.5 -169q0 -160 -133 -209q160 -39 160 -246q0 -154 -80 -217t-256 -63 q-193 0 -348 88zM557 0l846 1518h141l-848 -1518h-139zM1163 217v98l412 615h141l-411 -606h313l22 251h101v-251h151v-107h-151v-217h-125v217h-453z" />
<glyph unicode="&#xbf;" horiz-adv-x="1359" d="M168 348q0 141 66.5 222t218.5 165q139 78 171.5 145.5t18.5 243.5h154q23 -201 -22.5 -296t-203.5 -183q-147 -84 -195 -136t-48 -151q0 -117 67.5 -171t276.5 -54q248 0 444 105l68 -136q-217 -116 -522 -116q-279 0 -386.5 87t-107.5 275zM618 1319v209h205v-209h-205 z" />
<glyph unicode="&#xc0;" horiz-adv-x="1486" d="M51 0l608 1528h162l609 -1528h-164l-140 350h-778l-137 -350h-160zM397 1927h191l309 -319h-147zM403 498h666l-332 835z" />
<glyph unicode="&#xc1;" horiz-adv-x="1486" d="M51 0l608 1528h162l609 -1528h-164l-140 350h-778l-137 -350h-160zM403 498h666l-332 835zM582 1608l309 319h190l-352 -319h-147z" />
<glyph unicode="&#xc2;" horiz-adv-x="1486" d="M51 0l608 1528h162l609 -1528h-164l-140 350h-778l-137 -350h-160zM340 1608l311 319h174l312 -319h-156l-246 219l-241 -219h-154zM403 498h666l-332 835z" />
<glyph unicode="&#xc3;" horiz-adv-x="1486" d="M51 0l608 1528h162l609 -1528h-164l-140 350h-778l-137 -350h-160zM346 1690q123 152 250 151q74 0 156 -49t129 -49q63 0 159 110l95 -75q-135 -166 -252 -166q-63 0 -150.5 50t-134.5 50q-80 0 -154 -98zM403 498h666l-332 835z" />
<glyph unicode="&#xc4;" horiz-adv-x="1486" d="M51 0l608 1528h162l609 -1528h-164l-140 350h-778l-137 -350h-160zM403 498h666l-332 835zM453 1612v209h143v-209h-143zM885 1612v209h141v-209h-141z" />
<glyph unicode="&#xc5;" horiz-adv-x="1486" d="M53 0l574 1442q-129 53 -129 229q0 111 60 180.5t183 69.5q119 0 182.5 -69.5t63.5 -180.5q0 -172 -131 -229l576 -1442h-162l-140 348h-782l-135 -348h-160zM406 496h667l-334 837zM588 1671q0 -160 153.5 -160t153.5 160q0 72 -38 116t-115.5 44t-115.5 -44t-38 -116z " />
<glyph unicode="&#xc6;" horiz-adv-x="2191" d="M41 0l954 1518h1071v-154h-843v-502h823v-147h-823v-568h852v-147h-1006v344h-649l-219 -344h-160zM502 483h567v889z" />
<glyph unicode="&#xc7;" horiz-adv-x="1476" d="M90 760q0 391 194.5 586.5t561.5 195.5q330 0 530 -190l-114 -115q-168 152 -418 152q-592 0 -592 -631q0 -629 594 -629q156 0 252 41t176 115l112 -109q-203 -199 -548 -199h-43l-13 -69q111 8 175.5 -27t64.5 -145q0 -197 -268 -197q-133 0 -238 60l47 86 q88 -47 185 -47q94 0 127.5 28.5t33.5 79.5q0 57 -41 77.5t-151 14.5l-45 33l22 115q-604 70 -604 774z" />
<glyph unicode="&#xc8;" horiz-adv-x="1308" d="M178 0v1518h1004v-154h-842v-502h821v-151h-821v-564h850v-147h-1012zM309 1927h191l309 -320h-148z" />
<glyph unicode="&#xc9;" horiz-adv-x="1308" d="M178 0v1518h1004v-154h-842v-502h821v-151h-821v-564h850v-147h-1012zM494 1608l309 319h190l-352 -319h-147z" />
<glyph unicode="&#xca;" horiz-adv-x="1308" d="M178 0v1518h1004v-154h-842v-502h821v-151h-821v-564h850v-147h-1012zM252 1608l311 319h174l312 -319h-156l-246 219l-241 -219h-154z" />
<glyph unicode="&#xcb;" horiz-adv-x="1308" d="M178 0v1518h1004v-154h-842v-502h821v-151h-821v-564h850v-147h-1012zM365 1612v209h143v-209h-143zM797 1612v209h141v-209h-141z" />
<glyph unicode="&#xcc;" horiz-adv-x="546" d="M-111 1927h195l268 -319h-149zM195 0v1518h157v-1518h-157z" />
<glyph unicode="&#xcd;" horiz-adv-x="546" d="M195 0v1518h157v-1518h-157zM195 1608l266 319h194l-311 -319h-149z" />
<glyph unicode="&#xce;" horiz-adv-x="546" d="M-76 1608l264 319h168l262 -319h-153l-195 223l-194 -223h-152zM195 0v1518h157v-1518h-157z" />
<glyph unicode="&#xcf;" horiz-adv-x="546" d="M-13 1611v209h144v-209h-144zM195 0v1518h157v-1518h-157zM420 1611v209h141v-209h-141z" />
<glyph unicode="&#xd0;" horiz-adv-x="1540" d="M0 719v135h178v664h496q434 0 606 -163t172 -595q0 -422 -186.5 -591t-618.5 -169h-469v719h-178zM340 147h313q356 0 496.5 136.5t140.5 476.5q0 348 -128 477t-486 129h-336v-512h344v-135h-344v-572z" />
<glyph unicode="&#xd1;" horiz-adv-x="1595" d="M178 0v1518h176l908 -1252v1252h155v-1518h-147l-936 1288v-1288h-156zM401 1689q123 152 250 152q74 0 155.5 -49.5t128.5 -49.5q63 0 160 111l94 -76q-135 -166 -251 -166q-63 0 -150.5 50.5t-134.5 50.5q-80 -1 -154 -99z" />
<glyph unicode="&#xd2;" horiz-adv-x="1708" d="M90 760q0 782 762 782q766 0 766 -782q0 -785 -766 -785q-762 0 -762 785zM252 758q0 -633 600 -633q604 0 604 633q0 631 -604 631q-600 0 -600 -631zM510 1927h191l309 -320h-148z" />
<glyph unicode="&#xd3;" horiz-adv-x="1708" d="M90 760q0 782 762 782q766 0 766 -782q0 -785 -766 -785q-762 0 -762 785zM252 758q0 -633 600 -633q604 0 604 633q0 631 -604 631q-600 0 -600 -631zM694 1608l310 319h190l-352 -319h-148z" />
<glyph unicode="&#xd4;" horiz-adv-x="1708" d="M90 760q0 782 762 782q766 0 766 -782q0 -785 -766 -785q-762 0 -762 785zM252 758q0 -633 600 -633q604 0 604 633q0 631 -604 631q-600 0 -600 -631zM453 1608l311 319h174l311 -319h-155l-246 219l-242 -219h-153z" />
<glyph unicode="&#xd5;" horiz-adv-x="1708" d="M90 760q0 782 762 782q766 0 766 -782q0 -785 -766 -785q-762 0 -762 785zM252 758q0 -633 600 -633q604 0 604 633q0 631 -604 631q-600 0 -600 -631zM459 1689q123 152 250 152q74 0 155.5 -49.5t128.5 -49.5q63 0 160 111l94 -76q-135 -166 -251 -166 q-63 0 -150.5 50.5t-134.5 50.5q-80 -1 -154 -99z" />
<glyph unicode="&#xd6;" horiz-adv-x="1708" d="M90 760q0 782 762 782q766 0 766 -782q0 -785 -766 -785q-762 0 -762 785zM252 758q0 -633 600 -633q604 0 604 633q0 631 -604 631q-600 0 -600 -631zM565 1612v209h144v-209h-144zM997 1612v209h142v-209h-142z" />
<glyph unicode="&#xd7;" horiz-adv-x="1425" d="M291 397l325 324l-325 326l96 100l326 -326l323 326l97 -100l-324 -326l324 -324l-97 -98l-323 326l-328 -326z" />
<glyph unicode="&#xd8;" horiz-adv-x="1708" d="M90 760q0 401 189.5 591.5t572.5 190.5q182 0 324 -43l59 105h156l-91 -158q317 -178 318 -686q0 -403 -190.5 -594t-575.5 -191q-193 0 -346 52l-62 -111h-155l94 168q-293 182 -293 676zM248 758q0 -393 217 -541l641 1143q-115 33 -254 33q-317 0 -460.5 -159 t-143.5 -476zM575 162q111 -41 277 -41q317 0 462.5 159.5t145.5 477.5q0 408 -241 553z" />
<glyph unicode="&#xd9;" horiz-adv-x="1593" d="M168 547v971h162v-953q0 -215 98 -327.5t367 -112.5q272 0 373.5 111.5t101.5 328.5v953h155v-971q0 -125 -24.5 -218t-88 -178t-194 -130.5t-323.5 -45.5q-156 0 -271.5 32t-182.5 82t-106.5 128t-53 155t-13.5 175zM452 1927h191l309 -320h-148z" />
<glyph unicode="&#xda;" horiz-adv-x="1593" d="M168 547v971h162v-953q0 -215 98 -327.5t367 -112.5q272 0 373.5 111.5t101.5 328.5v953h155v-971q0 -125 -24.5 -218t-88 -178t-194 -130.5t-323.5 -45.5q-156 0 -271.5 32t-182.5 82t-106.5 128t-53 155t-13.5 175zM637 1608l309 319h191l-353 -319h-147z" />
<glyph unicode="&#xdb;" horiz-adv-x="1593" d="M168 547v971h162v-953q0 -215 98 -327.5t367 -112.5q272 0 373.5 111.5t101.5 328.5v953h155v-971q0 -125 -24.5 -218t-88 -178t-194 -130.5t-323.5 -45.5q-156 0 -271.5 32t-182.5 82t-106.5 128t-53 155t-13.5 175zM395 1608l312 319h174l311 -319h-156l-245 219 l-242 -219h-154z" />
<glyph unicode="&#xdc;" horiz-adv-x="1593" d="M168 547v971h162v-953q0 -215 98 -327.5t367 -112.5q272 0 373.5 111.5t101.5 328.5v953h155v-971q0 -125 -24.5 -218t-88 -178t-194 -130.5t-323.5 -45.5q-156 0 -271.5 32t-182.5 82t-106.5 128t-53 155t-13.5 175zM508 1612v209h143v-209h-143zM940 1612v209h141v-209 h-141z" />
<glyph unicode="&#xdd;" horiz-adv-x="1433" d="M27 1518h176l516 -783l520 783h166l-608 -926v-592h-160v590zM557 1607l310 320h190l-352 -320h-148z" />
<glyph unicode="&#xde;" horiz-adv-x="1445" d="M178 0v1518h158v-250h508q281 0 396.5 -107.5t115.5 -347.5q0 -244 -117 -360.5t-397 -116.5h-506v-336h-158zM336 483h510q186 0 268 75t82 251q0 178 -80 245.5t-276 67.5h-504v-639z" />
<glyph unicode="&#xdf;" horiz-adv-x="1327" d="M156 0v1112q0 219 118.5 351t389.5 132q242 0 356.5 -97t114.5 -296q0 -287 -222 -362q172 -31 255 -127.5t83 -274.5q0 -111 -22.5 -184.5t-83 -135t-177 -90t-292.5 -28.5h-133v141h129q109 0 187.5 15.5t123.5 41t71.5 67.5t35 83t8.5 98q0 160 -98.5 232t-350.5 72 v131q332 0 332 286q0 139 -76 206t-243 67q-352 0 -353 -334v-1106h-153z" />
<glyph unicode="&#xe0;" d="M90 315q0 240 161 329t593 89h67q-2 78 -13 126t-43 85t-92.5 52.5t-156.5 15.5q-188 0 -338 -99l-82 121q68 47 185.5 85t246.5 38q143 0 230.5 -24.5t134.5 -84t62.5 -138.5t15.5 -210v-426q0 -92 18.5 -114.5t98.5 -22.5v-135q-10 -4 -62 -4q-94 0 -132 31.5 t-52 109.5q-53 -82 -157 -120.5t-288 -38.5q-221 0 -309 88t-88 247zM240 326q0 -106 60 -159.5t210 -53.5q213 0 307 95t94 302v82h-59q-252 0 -380 -22.5t-180 -78t-52 -165.5zM295 1569h191l309 -320h-148z" />
<glyph unicode="&#xe1;" d="M90 315q0 240 161 329t593 89h67q-2 78 -13 126t-43 85t-92.5 52.5t-156.5 15.5q-188 0 -338 -99l-82 121q68 47 185.5 85t246.5 38q143 0 230.5 -24.5t134.5 -84t62.5 -138.5t15.5 -210v-426q0 -92 18.5 -114.5t98.5 -22.5v-135q-10 -4 -62 -4q-94 0 -132 31.5 t-52 109.5q-53 -82 -157 -120.5t-288 -38.5q-221 0 -309 88t-88 247zM240 326q0 -106 60 -159.5t210 -53.5q213 0 307 95t94 302v82h-59q-252 0 -380 -22.5t-180 -78t-52 -165.5zM479 1249l310 320h190l-352 -320h-148z" />
<glyph unicode="&#xe2;" d="M90 315q0 240 161 329t593 89h67q-2 78 -13 126t-43 85t-92.5 52.5t-156.5 15.5q-188 0 -338 -99l-82 121q68 47 185.5 85t246.5 38q143 0 230.5 -24.5t134.5 -84t62.5 -138.5t15.5 -210v-426q0 -92 18.5 -114.5t98.5 -22.5v-135q-10 -4 -62 -4q-94 0 -132 31.5 t-52 109.5q-53 -82 -157 -120.5t-288 -38.5q-221 0 -309 88t-88 247zM238 1249l311 320h174l311 -320h-155l-246 219l-242 -219h-153zM240 326q0 -106 60 -159.5t210 -53.5q213 0 307 95t94 302v82h-59q-252 0 -380 -22.5t-180 -78t-52 -165.5z" />
<glyph unicode="&#xe3;" d="M90 315q0 240 161 329t593 89h67q-2 78 -13 126t-43 85t-92.5 52.5t-156.5 15.5q-188 0 -338 -99l-82 121q68 47 185.5 85t246.5 38q143 0 230.5 -24.5t134.5 -84t62.5 -138.5t15.5 -210v-426q0 -92 18.5 -114.5t98.5 -22.5v-135q-10 -4 -62 -4q-94 0 -132 31.5 t-52 109.5q-53 -82 -157 -120.5t-288 -38.5q-221 0 -309 88t-88 247zM240 326q0 -106 60 -159.5t210 -53.5q213 0 307 95t94 302v82h-59q-252 0 -380 -22.5t-180 -78t-52 -165.5zM244 1331q123 152 250 152q74 0 155.5 -49.5t128.5 -49.5q63 0 160 111l94 -76 q-135 -166 -251 -166q-63 0 -150.5 50.5t-134.5 50.5q-80 -1 -154 -99z" />
<glyph unicode="&#xe4;" d="M90 315q0 240 161 329t593 89h67q-2 78 -13 126t-43 85t-92.5 52.5t-156.5 15.5q-188 0 -338 -99l-82 121q68 47 185.5 85t246.5 38q143 0 230.5 -24.5t134.5 -84t62.5 -138.5t15.5 -210v-426q0 -92 18.5 -114.5t98.5 -22.5v-135q-10 -4 -62 -4q-94 0 -132 31.5 t-52 109.5q-53 -82 -157 -120.5t-288 -38.5q-221 0 -309 88t-88 247zM240 326q0 -106 60 -159.5t210 -53.5q213 0 307 95t94 302v82h-59q-252 0 -380 -22.5t-180 -78t-52 -165.5zM350 1253v209h144v-209h-144zM783 1253v209h141v-209h-141z" />
<glyph unicode="&#xe5;" d="M90 315q0 240 161 329t593 89h67q-2 78 -13 126t-43 85t-92.5 52.5t-156.5 15.5q-188 0 -338 -99l-82 121q68 47 185.5 85t246.5 38q143 0 230.5 -24.5t134.5 -84t62.5 -138.5t15.5 -210v-426q0 -92 18.5 -114.5t98.5 -22.5v-135q-10 -4 -62 -4q-94 0 -132 31.5 t-52 109.5q-53 -82 -157 -120.5t-288 -38.5q-221 0 -309 88t-88 247zM240 326q0 -106 60 -159.5t210 -53.5q213 0 307 95t94 302v82h-59q-252 0 -380 -22.5t-180 -78t-52 -165.5zM391 1478.5q0 114.5 61.5 184.5t184.5 70q119 0 181.5 -71t62.5 -183.5t-62.5 -182 t-181.5 -69.5q-123 0 -184.5 68.5t-61.5 183zM483 1478.5q0 -159.5 154 -159.5q76 0 114 44t38 115.5t-38 115.5t-114 44q-154 0 -154 -159.5z" />
<glyph unicode="&#xe6;" horiz-adv-x="2017" d="M90 315q0 240 161 329t593 89h67q-2 78 -13 126t-43 85t-92.5 52.5t-156.5 15.5q-188 0 -342 -97l-78 119q68 47 185.5 85t246.5 38q174 0 264.5 -44t125.5 -136q121 180 432 180q96 0 172 -18.5t125 -51t83.5 -78.5t50 -102.5t26 -121t9.5 -132t-1 -139.5h-852 q6 -199 90 -300t305 -101q127 0 205 28.5t157 85.5l84 -108q-94 -72 -195 -107t-251 -35q-358 0 -469 226q-63 -127 -179 -175t-311 -48q-203 0 -301 79.5t-98 255.5zM240 326q0 -106 60 -159.5t212 -53.5q211 0 305 95t94 302v82h-59q-252 0 -380 -22.5t-180 -78 t-52 -165.5zM1055 655h702q-2 74 -7 117t-23.5 96.5t-51.5 81t-92 48t-145 20.5q-201 0 -285 -92t-98 -271z" />
<glyph unicode="&#xe7;" horiz-adv-x="1153" d="M100 567q0 291 121 440.5t424 149.5q258 0 408 -162l-113 -106q-119 119 -295 119q-213 0 -301 -111t-88 -334t87 -333.5t302 -110.5q172 0 303 119l105 -99q-90 -82 -183.5 -120.5t-228.5 -38.5h-6l-12 -72q111 8 175 -27t64 -145q0 -197 -268 -197q-133 0 -238 60 l47 86q88 -47 185 -47q94 0 128 28.5t34 79.5q0 57 -41 77.5t-152 14.5l-45 33l23 115q-240 27 -337.5 172t-97.5 409z" />
<glyph unicode="&#xe8;" horiz-adv-x="1214" d="M100 567q0 133 23.5 232.5t80 184.5t165 129t268.5 44q94 0 169 -19.5t123 -49t83 -82t52 -100.5t26.5 -121.5t11.5 -129t0 -141.5h-852q6 -199 89 -300t304 -101q127 0 206 28.5t159 85.5l84 -108q-185 -142 -449 -142q-164 0 -275.5 44.5t-168 129.5t-78 183t-21.5 233 zM252 655h702q-4 76 -9 117t-23.5 95.5t-50 82t-92 48t-146.5 20.5q-201 0 -284 -92t-97 -271zM262 1569h191l309 -320h-148z" />
<glyph unicode="&#xe9;" horiz-adv-x="1214" d="M100 567q0 133 23.5 232.5t80 184.5t165 129t268.5 44q94 0 169 -19.5t123 -49t83 -82t52 -100.5t26.5 -121.5t11.5 -129t0 -141.5h-852q6 -199 89 -300t304 -101q127 0 206 28.5t159 85.5l84 -108q-185 -142 -449 -142q-164 0 -275.5 44.5t-168 129.5t-78 183t-21.5 233 zM252 655h702q-4 76 -9 117t-23.5 95.5t-50 82t-92 48t-146.5 20.5q-201 0 -284 -92t-97 -271zM446 1249l310 320h190l-352 -320h-148z" />
<glyph unicode="&#xea;" horiz-adv-x="1214" d="M100 567q0 133 23.5 232.5t80 184.5t165 129t268.5 44q94 0 169 -19.5t123 -49t83 -82t52 -100.5t26.5 -121.5t11.5 -129t0 -141.5h-852q6 -199 89 -300t304 -101q127 0 206 28.5t159 85.5l84 -108q-185 -142 -449 -142q-164 0 -275.5 44.5t-168 129.5t-78 183t-21.5 233 zM205 1249l311 320h174l311 -320h-155l-246 219l-242 -219h-153zM252 655h702q-4 76 -9 117t-23.5 95.5t-50 82t-92 48t-146.5 20.5q-201 0 -284 -92t-97 -271z" />
<glyph unicode="&#xeb;" horiz-adv-x="1214" d="M100 567q0 133 23.5 232.5t80 184.5t165 129t268.5 44q94 0 169 -19.5t123 -49t83 -82t52 -100.5t26.5 -121.5t11.5 -129t0 -141.5h-852q6 -199 89 -300t304 -101q127 0 206 28.5t159 85.5l84 -108q-185 -142 -449 -142q-164 0 -275.5 44.5t-168 129.5t-78 183t-21.5 233 zM252 655h702q-4 76 -9 117t-23.5 95.5t-50 82t-92 48t-146.5 20.5q-201 0 -284 -92t-97 -271zM317 1253v209h144v-209h-144zM750 1253v209h141v-209h-141z" />
<glyph unicode="&#xec;" horiz-adv-x="487" d="M-102 1567h188l233 -318h-145zM166 0v1130h153v-1130h-153z" />
<glyph unicode="&#xed;" horiz-adv-x="487" d="M166 0v1130h153v-1130h-153zM170 1249l231 318h191l-277 -318h-145z" />
<glyph unicode="&#xee;" horiz-adv-x="487" d="M-80 1249l242 318h162l241 -318h-151l-172 221l-176 -221h-146zM166 0v1130h153v-1130h-153z" />
<glyph unicode="&#xef;" horiz-adv-x="487" d="M-14 1278v207h131v-207h-131zM166 0v1130h153v-1130h-153zM371 1278v207h131v-207h-131z" />
<glyph unicode="&#xf0;" horiz-adv-x="1292" d="M100 551q0 281 119 426t389 145q283 0 391 -133q-39 162 -141 303l-242 -67v114l166 47q-68 76 -166 156l138 66q117 -92 188 -176l283 77v-114l-211 -60q178 -276 178 -749q0 -315 -132 -462t-417 -147t-414 144.5t-129 429.5zM256 553q0 -219 91 -326.5t296 -107.5 q209 0 300 107.5t91 326.5q0 221 -91 327.5t-300 106.5q-205 0 -296 -106.5t-91 -327.5z" />
<glyph unicode="&#xf1;" d="M156 0v1122l123 8l14 -118q92 145 420 145q133 0 217 -31.5t124 -99.5t53 -142.5t13 -193.5v-690h-155v664q0 88 -8.5 139t-36 103t-90 75t-162.5 23q-209 0 -283 -94.5t-74 -274.5v-635h-155zM240 1331q123 152 250 152q74 0 155.5 -49.5t128.5 -49.5q63 0 160 111 l94 -76q-135 -166 -251 -166q-63 0 -150.5 50.5t-134.5 50.5q-80 -1 -154 -99z" />
<glyph unicode="&#xf2;" horiz-adv-x="1292" d="M100 567q0 299 129 444.5t416 145.5t417 -145.5t130 -444.5t-130 -444.5t-417 -145.5t-416 145.5t-129 444.5zM256 563q0 -223 91 -333.5t298 -110.5t298 110.5t91 333.5q0 225 -91 336t-298 111t-298 -111t-91 -336zM301 1569h191l309 -320h-148z" />
<glyph unicode="&#xf3;" horiz-adv-x="1292" d="M100 567q0 299 129 444.5t416 145.5t417 -145.5t130 -444.5t-130 -444.5t-417 -145.5t-416 145.5t-129 444.5zM256 563q0 -223 91 -333.5t298 -110.5t298 110.5t91 333.5q0 225 -91 336t-298 111t-298 -111t-91 -336zM485 1249l310 320h190l-352 -320h-148z" />
<glyph unicode="&#xf4;" horiz-adv-x="1292" d="M100 567q0 299 129 444.5t416 145.5t417 -145.5t130 -444.5t-130 -444.5t-417 -145.5t-416 145.5t-129 444.5zM244 1249l311 320h174l311 -320h-155l-246 219l-242 -219h-153zM256 563q0 -223 91 -333.5t298 -110.5t298 110.5t91 333.5q0 225 -91 336t-298 111t-298 -111 t-91 -336z" />
<glyph unicode="&#xf5;" horiz-adv-x="1292" d="M100 567q0 299 129 444.5t416 145.5t417 -145.5t130 -444.5t-130 -444.5t-417 -145.5t-416 145.5t-129 444.5zM250 1331q123 152 250 152q74 0 155.5 -49.5t128.5 -49.5q63 0 160 111l94 -76q-135 -166 -251 -166q-63 0 -150.5 50.5t-134.5 50.5q-80 -1 -154 -99z M256 563q0 -223 91 -333.5t298 -110.5t298 110.5t91 333.5q0 225 -91 336t-298 111t-298 -111t-91 -336z" />
<glyph unicode="&#xf6;" horiz-adv-x="1292" d="M100 567q0 299 129 444.5t416 145.5t417 -145.5t130 -444.5t-130 -444.5t-417 -145.5t-416 145.5t-129 444.5zM256 563q0 -223 91 -333.5t298 -110.5t298 110.5t91 333.5q0 225 -91 336t-298 111t-298 -111t-91 -336zM356 1253v209h144v-209h-144zM788 1253v209h142v-209 h-142z" />
<glyph unicode="&#xf7;" horiz-adv-x="1425" d="M217 649v148h989v-148h-989zM618 221v191h189v-191h-189zM618 1034v191h189v-191h-189z" />
<glyph unicode="&#xf8;" horiz-adv-x="1292" d="M100 567q0 299 127 444.5t418 145.5q139 0 250 -39l59 101h144l-90 -156q184 -137 184 -496q0 -299 -128 -444.5t-419 -145.5q-143 0 -248 35l-59 -98h-145l92 156q-184 135 -185 497zM254 563q0 -260 115 -362l452 784q-80 27 -176 27q-211 0 -301 -111t-90 -338z M465 143q76 -28 180 -28q209 0 301 111.5t92 336.5q0 258 -118 365z" />
<glyph unicode="&#xf9;" horiz-adv-x="1257" d="M150 465v665h153v-669q0 -53 1 -79t7 -69t18.5 -65.5t36 -51t58.5 -42t87 -23.5t121.5 -10t122 10t86 23.5t57.5 43t35 51t16 67.5t6 71t1 82v661h152v-659q0 -104 -7 -171t-35 -134.5t-78 -103t-138 -59t-217 -23.5q-160 0 -259.5 30.5t-147.5 101t-62 147.5t-14 206z M285 1569h191l309 -320h-148z" />
<glyph unicode="&#xfa;" horiz-adv-x="1257" d="M150 465v665h153v-669q0 -53 1 -79t7 -69t18.5 -65.5t36 -51t58.5 -42t87 -23.5t121.5 -10t122 10t86 23.5t57.5 43t35 51t16 67.5t6 71t1 82v661h152v-659q0 -104 -7 -171t-35 -134.5t-78 -103t-138 -59t-217 -23.5q-160 0 -259.5 30.5t-147.5 101t-62 147.5t-14 206z M469 1249l309 320h191l-353 -320h-147z" />
<glyph unicode="&#xfb;" horiz-adv-x="1257" d="M150 465v665h153v-669q0 -53 1 -79t7 -69t18.5 -65.5t36 -51t58.5 -42t87 -23.5t121.5 -10t122 10t86 23.5t57.5 43t35 51t16 67.5t6 71t1 82v661h152v-659q0 -104 -7 -171t-35 -134.5t-78 -103t-138 -59t-217 -23.5q-160 0 -259.5 30.5t-147.5 101t-62 147.5t-14 206z M227 1249l312 320h174l311 -320h-156l-245 219l-242 -219h-154z" />
<glyph unicode="&#xfc;" horiz-adv-x="1257" d="M150 465v665h153v-669q0 -53 1 -79t7 -69t18.5 -65.5t36 -51t58.5 -42t87 -23.5t121.5 -10t122 10t86 23.5t57.5 43t35 51t16 67.5t6 71t1 82v661h152v-659q0 -104 -7 -171t-35 -134.5t-78 -103t-138 -59t-217 -23.5q-160 0 -259.5 30.5t-147.5 101t-62 147.5t-14 206z M340 1253v209h143v-209h-143zM772 1253v209h141v-209h-141z" />
<glyph unicode="&#xfd;" horiz-adv-x="1085" d="M23 1130h163l361 -940l356 940h160l-488 -1243q-47 -125 -117.5 -177t-199.5 -52q-78 0 -98 2v127h88q78 0 115.5 25.5t60.5 91.5l41 104zM387 1249l310 320h190l-352 -320h-148z" />
<glyph unicode="&#xfe;" horiz-adv-x="1325" d="M156 -338v1927h155v-585q88 154 430 153q268 0 376 -150.5t108 -439.5q0 -287 -109.5 -437t-380.5 -150q-182 0 -280.5 36.5t-143.5 116.5v-471h-155zM311 563q0 -248 90.5 -344t309.5 -96q199 0 277.5 109.5t78.5 330.5q0 223 -78 335t-278 112q-217 0 -308.5 -99.5 t-91.5 -347.5z" />
<glyph unicode="&#xff;" horiz-adv-x="1085" d="M23 1130h163l361 -940l356 940h160l-488 -1243q-47 -125 -117.5 -177t-199.5 -52q-78 0 -98 2v127h88q78 0 115.5 25.5t60.5 91.5l41 104zM258 1253v209h144v-209h-144zM691 1253v209h141v-209h-141z" />
<glyph unicode="&#x152;" horiz-adv-x="2580" d="M90 760q0 401 189.5 591.5t572.5 190.5q442 0 614 -270v246h988v-154h-842v-502h821v-147h-821v-568h850v-147h-996v248q-172 -272 -614 -273q-383 0 -572.5 190.5t-189.5 594.5zM252 758q0 -317 143.5 -475t456.5 -158q315 0 459.5 158.5t144.5 474t-144.5 473.5 t-459.5 158q-313 0 -456.5 -158t-143.5 -473z" />
<glyph unicode="&#x153;" horiz-adv-x="2146" d="M100 567q0 299 127 444.5t418 145.5q350 0 465 -231q106 231 461 231q96 0 172 -18.5t124 -51t83 -78.5t51 -102.5t26.5 -121t9.5 -132t-1 -139.5h-852q6 -199 89 -300t304 -101q127 0 206 28.5t159 85.5l86 -108q-189 -142 -451 -142q-360 0 -469 228 q-115 -227 -463 -228q-291 0 -418 145.5t-127 444.5zM256 563q0 -223 91 -333.5t298 -110.5t298 110.5t91 333.5q0 225 -91 336t-298 111t-298 -111t-91 -336zM1186 653h702q-4 76 -9 117t-23.5 96.5t-51 83t-92 48t-145.5 20.5q-203 0 -286 -93.5t-95 -271.5z" />
<glyph unicode="&#x178;" horiz-adv-x="1433" d="M27 1518h176l516 -783l520 783h166l-608 -926v-592h-160v590zM428 1611v209h144v-209h-144zM861 1611v209h141v-209h-141z" />
<glyph unicode="&#x2c6;" horiz-adv-x="1208" d="M205 1249l311 320h174l311 -320h-155l-246 219l-242 -219h-153z" />
<glyph unicode="&#x2dc;" horiz-adv-x="1208" d="M211 1331q123 152 250 152q74 0 155.5 -49.5t128.5 -49.5q63 0 160 111l94 -76q-135 -166 -251 -166q-63 0 -150.5 50.5t-134.5 50.5q-80 -1 -154 -99z" />
<glyph unicode="&#x2000;" horiz-adv-x="963" />
<glyph unicode="&#x2001;" horiz-adv-x="1927" />
<glyph unicode="&#x2002;" horiz-adv-x="963" />
<glyph unicode="&#x2003;" horiz-adv-x="1927" />
<glyph unicode="&#x2004;" horiz-adv-x="642" />
<glyph unicode="&#x2005;" horiz-adv-x="481" />
<glyph unicode="&#x2006;" horiz-adv-x="321" />
<glyph unicode="&#x2007;" horiz-adv-x="321" />
<glyph unicode="&#x2008;" horiz-adv-x="240" />
<glyph unicode="&#x2009;" horiz-adv-x="385" />
<glyph unicode="&#x200a;" horiz-adv-x="107" />
<glyph unicode="&#x2010;" horiz-adv-x="925" d="M106 557v145h711v-145h-711z" />
<glyph unicode="&#x2011;" horiz-adv-x="925" d="M106 557v145h711v-145h-711z" />
<glyph unicode="&#x2012;" horiz-adv-x="925" d="M106 557v145h711v-145h-711z" />
<glyph unicode="&#x2013;" horiz-adv-x="1435" d="M106 557v145h1223v-145h-1223z" />
<glyph unicode="&#x2014;" horiz-adv-x="1886" d="M106 557v145h1676v-145h-1676z" />
<glyph unicode="&#x2018;" horiz-adv-x="489" d="M141 1036v181q0 131 34 192t138 115l45 -84q-68 -37 -90 -71t-22 -99h100v-234h-205z" />
<glyph unicode="&#x2019;" horiz-adv-x="489" d="M131 1114q68 37 90.5 71t22.5 97h-103v236h205v-179q0 -133 -34 -195.5t-136 -113.5z" />
<glyph unicode="&#x201a;" horiz-adv-x="489" d="M131 -135q68 37 90.5 70.5t22.5 99.5h-103v233h205v-180q0 -125 -34 -190.5t-136 -116.5z" />
<glyph unicode="&#x201c;" horiz-adv-x="856" d="M141 1038v176q0 127 34 189.5t136 114.5l45 -84q-68 -35 -90 -69t-22 -97h100v-230h-203zM514 1038v176q0 129 34 190.5t134 113.5l45 -84q-68 -35 -90.5 -69t-22.5 -97h101v-230h-201z" />
<glyph unicode="&#x201d;" horiz-adv-x="856" d="M131 1120q68 37 90.5 70t22.5 98h-103v230h203v-177q0 -129 -34 -190.5t-136 -112.5zM500 1120q70 37 92 70t22 98h-100v230h201v-177q0 -129 -34 -190.5t-136 -112.5z" />
<glyph unicode="&#x201e;" horiz-adv-x="856" d="M131 -133q68 35 90.5 68.5t22.5 99.5h-103v229h203v-176q0 -125 -34 -189.5t-136 -113.5zM500 -133q68 35 91 68.5t23 99.5h-100v229h201v-176q0 -125 -35 -189.5t-135 -113.5z" />
<glyph unicode="&#x2022;" horiz-adv-x="700" d="M205 461v323h291v-323h-291z" />
<glyph unicode="&#x2026;" horiz-adv-x="1398" d="M141 0v227h205v-227h-205zM596 0v227h205v-227h-205zM1053 0v227h204v-227h-204z" />
<glyph unicode="&#x202f;" horiz-adv-x="385" />
<glyph unicode="&#x2039;" horiz-adv-x="866" d="M182 563l310 567h141l-299 -567l299 -563h-141z" />
<glyph unicode="&#x203a;" horiz-adv-x="866" d="M231 0l301 565l-301 565h144l309 -565l-309 -565h-144z" />
<glyph unicode="&#x205f;" horiz-adv-x="481" />
<glyph unicode="&#x20ac;" horiz-adv-x="1357" d="M80 545v137h225v82q0 59 2 90h-227v137h237q33 274 160 412.5t381 138.5q215 0 365 -78l-72 -133q-121 66 -291 66q-186 0 -277 -102.5t-118 -303.5h541v-137h-551v-172h551v-137h-541q23 -213 114 -319.5t279 -106.5q178 0 295 71l78 -122q-147 -92 -379 -93 q-258 0 -383 142.5t-154 427.5h-235z" />
<glyph unicode="&#x2122;" horiz-adv-x="2222" d="M133 1403v115h766v-115h-324v-813h-120v813h-322zM997 590v928h138l321 -766l322 766h139v-928h-121v710l-297 -710h-88l-299 710v-710h-115z" />
<glyph unicode="&#xe000;" horiz-adv-x="1126" d="M0 0v1126h1126v-1126h-1126z" />
<glyph unicode="&#xfb03;" horiz-adv-x="1896" d="M63 989v141h213v105q0 172 74 263t262 91h123v-137h-106q-113 0 -156 -56.5t-43 -160.5v-105h496v105q0 172 73.5 263t262.5 91h124v-137h-108q-111 0 -154 -56.5t-43 -160.5v-105h305v-141h-305v-989h-155v989h-496v-989h-154v989h-213zM1575 1280v221h158v-221h-158z M1577 0v1130h154v-1130h-154z" />
<glyph unicode="&#xfb04;" horiz-adv-x="2009" d="M63 989v141h213v105q0 172 74 263t262 91h123v-137h-106q-113 0 -156 -56.5t-43 -160.5v-105h496v105q0 172 73.5 263t262.5 91h124v-137h-108q-111 0 -154 -56.5t-43 -160.5v-105h305v-141h-305v-989h-155v989h-496v-989h-154v989h-213zM1577 270v1319h154v-1302 q0 -88 23.5 -119t105.5 -31h49v-135q-29 -4 -99 -4q-133 0 -183 61.5t-50 210.5z" />
</font>
</defs>
</svg>
