<svg xmlns="http://www.w3.org/2000/svg" width="720" height="780"><g transform="matrix(1.25 0 0 -1.25 0 916.25)"><path d="M287.639 723.684l-279.435-98.338 44.155-366.11 235.576-129.478 236.791 131.233 44.141 366.095-281.227 96.598z" fill="#b3b3b3"/><path d="M540.997 605.929l-254.011 86.618v-531.854l212.873 117.81 41.138 327.425z" fill="#af2b2d"/><path d="M39.561 604.364l37.837-327.423 209.586-116.247v531.864l-247.424-88.194z" fill="#df2e31"/><path d="M345.864 428.012l-58.415 121.987-51.427-121.987h109.842zm22.272-51.293h-154.844l-34.641-86.645-64.436-1.191 172.774 384.352 178.795-384.352h-59.723l-37.925 87.837z" fill="#f2f2f2"/><path d="M286.986 673.234l.461-123.235 58.354-122.081h-58.684l-.131-51.12 81.145-.079 37.927-87.852 61.655-1.143-180.727 385.51z" fill="#b3b3b3"/></g></svg>